<svg width="120" height="32" viewBox="0 0 120 32" fill="none" xmlns="http://www.w3.org/2000/svg">
  <rect width="32" height="32" rx="8" fill="#7C3AED"/>
  <path d="M16 8C11.6 8 8 11.6 8 16C8 20.4 11.6 24 16 24C18.2 24 20.2 23.1 21.7 21.7L19.6 19.6C18.6 20.5 17.4 21 16 21C13.2 21 11 18.8 11 16C11 13.2 13.2 11 16 11C17.4 11 18.6 11.5 19.6 12.4L21.7 10.3C20.2 8.9 18.2 8 16 8Z" fill="white"/>
  <text x="40" y="22" font-family="Inter, sans-serif" font-weight="600" font-size="16" fill="white">Cordialy</text>
</svg>
